# xmcd
#
# Track frame offsets: 
#        150
#        17332
#        33858
#        51897
#        68474
#        85284
#        101727
#        116346
#        132450
#        149846
#        167077
#        180755
#        197128
#        210703
#        225704
#
# Disc length: 3229 seconds
#
# Revision: 0
# Processed by: cddbd v1.5.2PL0 Copyright (c) Steve Scherf et al.
# Submitted via: ExactAudioCopyFreeDBPlugin 1.0
#
DISCID=c80c9b0f
DTITLE=Various Artist - Iskelm‰gaala 2012 CD1
DYEAR=2012
DGENRE=
TTITLE0=Kaija Koo - Kaunis Rietas Onnellinen
TTITLE1=Samuli Edelmann - Ei Mit‰‰n H‰t‰‰
TTITLE2=Chisu - Sabotage
TTITLE3=Lauri T‰hk‰ - Polte
TTITLE4=Suvi Ter‰sniska - Pahalta piilossa
TTITLE5=Topi Sorsakoski - Viimeiseen korttiin
TTITLE6=Erin - Vanha nainen hunningolla
TTITLE7=Juha Tapio - En mit‰‰n, en ket‰‰n
TTITLE8=Jenni Vartiainen - Duran Duran
TTITLE9=Jari Sillanp‰‰ - En se olla saa
TTITLE10=Lassi Valtonen - Vanhanaikainen
TTITLE11=Anneli Mattila - Seitsem‰s taivas
TTITLE12=Freeman - Mattolaituri
TTITLE13=Jorma K‰‰ri‰inen and Riku Niemi Orchestra - Angelica
TTITLE14=Holger Nelin - Askel askeleelta
EXTD=
EXTT0=
EXTT1=
EXTT2=
EXTT3=
EXTT4=
EXTT5=
EXTT6=
EXTT7=
EXTT8=
EXTT9=
EXTT10=
EXTT11=
EXTT12=
EXTT13=
EXTT14=
PLAYORDER=
